# WaveFront *.obj file (generated by Cinema 4D)

mtllib ./box.mtl

v -0.65269941091537 -0.04047732427716 0.04651117324829
v -0.4754242002964 0.60086190700531 0.2837390601635
v 0.08010232448578 -0.44532850384712 0.5934089422226
v 0.25737750530243 0.19601073861122 0.83063679933548
v 0.71257776021957 -0.3364834189415 -0.17348584532738
v 0.88985294103622 0.30485582351685 0.06374204903841
v -0.02022397704422 0.06836777180433 -0.72038358449936
v 0.15705120563507 0.70970702171326 -0.48315569758415
# 8 vertices

vn -0.63247537612915 -0.10884510725737 0.76689475774765
vn 0.73280173540115 -0.40485119819641 0.54689770936966
vn 0.6324754357338 0.10884508490562 -0.76689475774765
vn -0.73280173540115 0.40485119819641 -0.5468977689743
vn 0.25095111131668 0.90788120031357 0.33582031726837
vn -0.25095111131668 -0.90788120031357 -0.33582031726837
# 6 normals

vt 0 0 0
vt 0 1 0
vt 1 1 0
vt 1 0 0
# 4 texture coordinates

o Cube
usemtl default
f 3/4/1 4/3/1 2/2/1 1/1/1
f 5/4/2 6/3/2 4/2/2 3/1/2
f 7/4/3 8/3/3 6/2/3 5/1/3
f 1/4/4 2/3/4 8/2/4 7/1/4
f 4/4/5 6/3/5 8/2/5 2/1/5
f 5/4/6 3/3/6 1/2/6 7/1/6

