# WaveFront *.obj file (generated by Cinema 4D)

mtllib ./plane-cylinder.mtl

v -1.13786613941193 -0.32243680953979 0.44740244746208
v -0.63786619901657 -0.32243680953979 0.44740244746208
v -0.13786618411541 -0.32243680953979 0.44740244746208
v 0.36213380098343 -0.32243680953979 0.44740244746208
v 0.86213380098343 -0.32243680953979 0.44740244746208
v -1.13786613941193 -0.15732145309448 -0.0245476718992
v -0.63786619901657 -0.15732145309448 -0.0245476718992
v -0.13786618411541 -0.15732145309448 -0.0245476718992
v 0.36213380098343 -0.15732145309448 -0.0245476718992
v 0.86213380098343 -0.15732145309448 -0.0245476718992
v -1.13786613941193 0.00779389031231 -0.49649780988693
v -0.63786619901657 0.00779389031231 -0.49649780988693
v -0.13786618411541 0.00779389031231 -0.49649780988693
v 0.36213380098343 0.00779389031231 -0.49649780988693
v 0.86213380098343 0.00779389031231 -0.49649780988693
v -1.13786613941193 0.17290924489498 -0.96844792366028
v -0.63786619901657 0.17290924489498 -0.96844792366028
v -0.13786618411541 0.17290924489498 -0.96844792366028
v 0.36213380098343 0.17290924489498 -0.96844792366028
v 0.86213380098343 0.17290924489498 -0.96844792366028
v -1.13786613941193 0.33802458643913 -1.44039809703827
v -0.63786619901657 0.33802458643913 -1.44039809703827
v -0.13786618411541 0.33802458643913 -1.44039809703827
v 0.36213380098343 0.33802458643913 -1.44039809703827
v 0.86213380098343 0.33802458643913 -1.44039809703827
# 25 vertices

vn 0 0.94390028715134 0.33023062348366
vn 0 0.94390028715134 0.33023065328598
vn 0 0.94390028715134 0.3302306830883
vn 0 0.94390022754669 0.33023071289062
# 4 normals

vt 0 0 0
vt 0 0.25 0
vt 0.25 0.25 0
vt 0.25 0 0
vt 0.5 0.25 0
vt 0.5 0 0
vt 0.75 0.25 0
vt 0.75 0 0
vt 1 0.25 0
vt 1 0 0
vt 0 0.5 0
vt 0.25 0.5 0
vt 0.5 0.5 0
vt 0.75 0.5 0
vt 1 0.5 0
vt 0 0.75 0
vt 0.25 0.75 0
vt 0.5 0.75 0
vt 0.75 0.75 0
vt 1 0.75 0
vt 0 1 0
vt 0.25 1 0
vt 0.5 1 0
vt 0.75 1 0
vt 1 1 0
# 25 texture coordinates

o Plane
usemtl default
f 2/4/2 7/3/3 6/2/2 1/1/1
f 3/6/2 8/5/3 7/3/3 2/4/2
f 4/8/2 9/7/3 8/5/3 3/6/2
f 5/10/2 10/9/3 9/7/3 4/8/2
f 7/3/3 12/12/4 11/11/4 6/2/2
f 8/5/3 13/13/4 12/12/4 7/3/3
f 9/7/3 14/14/4 13/13/4 8/5/3
f 10/9/3 15/15/4 14/14/4 9/7/3
f 12/12/4 17/17/4 16/16/4 11/11/4
f 13/13/4 18/18/4 17/17/4 12/12/4
f 14/14/4 19/19/4 18/18/4 13/13/4
f 15/15/4 20/20/4 19/19/4 14/14/4
f 17/17/4 22/22/4 21/21/4 16/16/4
f 18/18/4 23/23/4 22/22/4 17/17/4
f 19/19/4 24/24/4 23/23/4 18/18/4
f 20/20/4 25/25/4 24/24/4 19/19/4

v -0.02293759770691 0.09313954412937 -0.06101740151644
v 0.02293759770691 0.37915709614754 0.06101740151644
v 0.19985862076282 0.1055046916008 -0.17375138401985
v 0.22279621660709 0.2485134601593 -0.11273398250341
v 0.24573381245136 0.39152225852013 -0.05171657726169
v 0.09419163316488 0.16365632414818 -0.2703213095665
v 0.11712922900915 0.30666509270668 -0.20930391550064
v 0.140066832304 0.44967386126518 -0.14828650653362
v -0.05621473863721 0.19487293064594 -0.28694427013397
v -0.03327714279294 0.33788171410561 -0.22592686116695
v -0.01033954229206 0.48089048266411 -0.1649094671011
v -0.19391037523746 0.18723085522652 -0.21727083623409
v -0.1709727793932 0.33023962378502 -0.15625342726707
v -0.14803516864777 0.47324842214584 -0.09523603320122
v -0.26630023121834 0.14364908635616 -0.08791390061378
v -0.24336262047291 0.28665786981583 -0.02689650095999
v -0.22042502462864 0.42966663837433 0.03412090241909
v -0.24573381245136 0.08077439665794 0.05171657726169
v -0.22279621660709 0.22378318011761 0.11273398250341
v -0.19985862076282 0.36679196357727 0.17375138401985
v -0.140066832304 0.02262276783586 0.14828650653362
v -0.11712922900915 0.16563154757023 0.20930391550064
v -0.09419163316488 0.30864033102989 0.2703213095665
v 0.01033954229206 -0.00859384983778 0.1649094671011
v 0.03327714279294 0.1344149261713 0.22592686116695
v 0.05621473863721 0.27742370963097 0.28694427013397
v 0.14803516864777 -0.00095176853938 0.09523603320122
v 0.1709727793932 0.14205700159073 0.15625342726707
v 0.19391037523746 0.28506579995155 0.21727083623409
v 0.22042502462864 0.042629994452 -0.03412090241909
v 0.24336262047291 0.18563877046108 0.02689650095999
v 0.26630023121834 0.32864755392075 0.08791390061378
# 32 vertices

vn -0.14594615995884 -0.90992891788483 -0.38823840022087
vn -0.14594614505768 -0.90992891788483 -0.38823840022087
vn -0.14594614505768 -0.90992897748947 -0.38823837041855
vn 0.57735025882721 0.57735025882721 -0.57735025882721
vn 0.89118486642838 0.04946054518223 -0.45093595981598
vn 0.89118486642838 0.04946056753397 -0.45093595981598
vn 0.46851694583893 0.28206712007523 -0.83721566200256
vn 0.46851691603661 0.2820670902729 -0.83721566200256
vn 0.89118486642838 0.04946058243513 -0.45093593001366
vn 0.46851685643196 0.2820670902729 -0.83721566200256
vn 0.14594620466232 0.90992891788483 0.38823845982552
vn 0.14594618976116 0.90992891788483 0.38823843002319
vn 0.14594618976116 0.90992891788483 0.38823840022087
vn -0.14594620466232 -0.90992891788483 -0.38823837041855
vn -0.1331085562706 0.40693357586861 -0.90370744466782
vn -0.13310852646828 0.40693366527557 -0.90370744466782
vn -0.1331085562706 0.40693351626396 -0.90370750427246
vn 0.14594613015652 0.90992891788483 0.38823843002319
vn -0.68389105796814 0.3763652741909 -0.62501376867294
vn -0.68389099836349 0.37636530399323 -0.62501376867294
vn -0.68389111757278 0.37636521458626 -0.6250137090683
vn 0.14594610035419 0.90992891788483 0.38823845982552
vn 0.57712149620056 0.57712149620056 -0.57780754566193
vn 0.5768935084343 0.5775785446167 -0.5775785446167
vn -0.97345048189163 0.20203822851181 -0.10758600383997
vn -0.97345048189163 0.20203822851181 -0.10758601129055
vn -0.97345048189163 0.20203822851181 -0.10758599638939
vn 0.14594611525536 0.90992891788483 0.38823840022087
vn 0.57757788896561 0.57757788896561 -0.57689470052719
vn 0.57757759094238 0.57757759094238 -0.57689535617828
vn -0.89118486642838 -0.04946054518223 0.45093595981598
vn -0.89118486642838 -0.0494605563581 0.45093593001366
vn -0.89118486642838 -0.04946054518223 0.45093593001366
vn 0.14594614505768 0.90992891788483 0.38823840022087
vn 0 0 -1
vn 0.73017299175262 0 -0.68326234817505
vn -0.46851694583893 -0.28206712007523 0.83721566200256
vn -0.46851688623428 -0.28206706047058 0.83721566200256
vn -0.46851691603661 -0.28206706047058 0.83721566200256
vn 0.14594617486 0.90992891788483 0.38823843002319
vn -0.73017299175262 0 0.68326234817505
vn -0.14594615995884 -0.90992891788483 -0.38823837041855
vn 0 0 1
vn 0.13310858607292 -0.40693357586861 0.90370744466782
vn 0.13310858607292 -0.40693354606628 0.90370750427246
vn 0.13310857117176 -0.40693357586861 0.90370744466782
vn 0.14594620466232 0.90992891788483 0.38823843002319
vn 0.58472818136215 -0.49129682779312 0.64553880691528
vn -0.14594617486 -0.90992891788483 -0.38823837041855
vn -0.69309657812119 0.00009877617413 0.72084474563599
vn 0.68389111757278 -0.37636524438858 0.6250137090683
vn 0.68389111757278 -0.37636521458626 0.6250137090683
vn 0.68389105796814 -0.3763652741909 0.62501376867294
vn 0.14594623446465 0.90992891788483 0.38823840022087
vn -0.65756565332413 0 0.75339722633362
vn 0.65756565332413 0 0.75339722633362
vn 0.97345048189163 -0.20203821361065 0.10758599638939
vn 0.97345048189163 -0.20203819870949 0.10758598893881
vn 0.97345048189163 -0.20203821361065 0.10758601129055
vn 0.14594623446465 0.90992891788483 0.38823845982552
vn 0.69309657812119 0.0000987761814 0.72084474563599
vn -0.58472812175751 -0.49129688739777 0.64553880691528
vn 0 0 1
# 63 normals

vt 0.09549150615931 0.79389262199402 0
vt 0.09999999403954 0.5 0
vt 0.10000000149012 0 0
vt 0.10000000149012 1 0
vt 0.90450847148895 0.79389262199402 0
vt 0.34549149870872 0.97552824020386 0
vt 0.19999998807907 0.5 0
vt 0.20000000298023 0 0
vt 0.20000000298023 1 0
vt 0.65450847148895 0.97552824020386 0
vt 0.30000001192093 0.5 0
vt 0.30000001192093 0 0
vt 0.30000001192093 1 0
vt 0.39999997615814 0.5 0
vt 0.40000000596046 0 0
vt 0.40000000596046 1 0
vt 0.90450847148895 0.20610737800598 0
vt 0.60000002384186 0.5 0
vt 0.60000002384186 0 0
vt 0.60000002384186 1 0
vt 0.09549150615931 0.20610737800598 0
vt 0.65450847148895 0.02447175979614 0
vt 0.69999992847443 0.5 0
vt 0.69999998807907 0 0
vt 0.69999998807907 1 0
vt 0.34549149870872 0.02447175979614 0
vt 0.79999995231628 0.5 0
vt 0.80000001192093 0 0
vt 0.80000001192093 1 0
vt 0.89999997615814 0.5 0
vt 0.89999997615814 0 0
vt 0.89999997615814 1 0
# 32 texture coordinates

o Cylinder
usemtl default
f 31/26/7 28/11/6 26/13/5
f 31/28/12 32/27/11 29/11/10 28/1/9
f 32/27/11 33/29/14 30/21/13 29/11/10
f 33/30/17 27/13/16 30/15/15
f 34/31/18 31/26/7 26/13/5
f 34/33/20 35/32/19 32/27/11 31/28/12
f 35/32/19 36/34/21 33/29/14 32/27/11
f 36/35/22 27/13/16 33/30/17
f 37/35/18 34/31/18 26/13/5
f 37/37/24 38/36/23 35/32/19 34/33/20
f 38/36/23 39/38/25 36/34/21 35/32/19
f 39/31/26 27/13/16 36/35/22
f 40/30/5 37/35/18 26/13/5
f 40/40/30 41/39/29 38/36/23 37/37/24
f 41/39/29 42/41/31 39/38/25 38/36/23
f 42/26/32 27/13/16 39/31/26
f 43/15/5 40/30/5 26/13/5
f 43/6/36 44/13/35 41/39/29 40/40/30
f 44/13/35 45/23/37 42/41/31 41/39/29
f 45/11/38 27/13/16 42/26/32
f 46/42/6 43/15/5 26/13/5
f 46/44/42 47/43/41 44/13/35 43/6/36
f 47/43/41 48/45/43 45/23/37 44/13/35
f 48/46/44 27/13/16 45/11/38
f 49/47/46 46/42/6 26/13/5
f 49/49/49 50/48/48 47/43/41 46/44/42
f 50/48/48 51/50/50 48/45/43 47/43/41
f 51/51/51 27/13/16 48/46/44
f 52/51/53 49/47/46 26/13/5
f 52/53/56 53/52/55 50/48/48 49/49/49
f 53/52/55 54/54/57 51/50/50 50/48/48
f 54/47/58 27/13/16 51/51/51
f 55/46/5 52/51/53 26/13/5
f 55/56/62 56/55/61 53/52/55 52/53/56
f 56/55/61 57/57/63 54/54/57 53/52/55
f 57/42/64 27/13/16 54/47/58
f 28/11/6 55/46/5 26/13/5
f 28/10/9 29/15/10 56/55/61 55/56/62
f 29/15/10 30/25/13 57/57/63 56/55/61
f 30/15/15 27/13/16 57/42/64

