# WaveFront *.obj file (generated by Cinema 4D)

mtllib ./cbox.mtl

v 145.06483459472656 -0.45249444246292 128.97813415527344
v 145.06483459472656 159.54750061035156 128.97813415527344
v 175.67951965332031 5.6371431350708 128.97813415527344
v 173.34910583496094 5.6371431350708 117.26241302490234
v 166.71269226074219 5.6371431350708 107.33029174804688
v 156.78056335449219 5.6371431350708 100.69387054443359
v 145.06483459472656 5.6371431350708 98.36346435546875
v 133.34910583496094 5.6371431350708 100.69387054443359
v 123.41699981689453 5.6371431350708 107.33029174804688
v 116.78057098388672 5.6371431350708 117.26241302490234
v 114.45016479492188 5.6371431350708 128.97813415527344
v 116.78057098388672 5.6371431350708 140.69386291503906
v 123.41699981689453 5.6371431350708 150.6259765625
v 133.34910583496094 5.6371431350708 157.26240539550781
v 145.06483459472656 5.6371431350708 159.59281921386719
v 156.78056335449219 5.6371431350708 157.26240539550781
v 166.71269226074219 5.6371431350708 150.6259765625
v 173.34910583496094 5.6371431350708 140.69386291503906
v 201.63337707519531 22.97896385192871 128.97813415527344
v 197.32736206054688 22.97896385192871 107.33029174804688
v 185.06483459472656 22.97896385192871 88.97814178466797
v 166.71269226074219 22.97896385192871 76.71562194824219
v 145.06483459472656 22.97896385192871 72.40959930419922
v 123.41699981689453 22.97896385192871 76.71562194824219
v 105.06484222412109 22.97896385192871 88.97814178466797
v 92.80232238769531 22.97896385192871 107.33029174804688
v 88.49629974365234 22.97896385192871 128.97813415527344
v 92.80232238769531 22.97896385192871 150.6259765625
v 105.06484222412109 22.97896385192871 168.97813415527344
v 123.41699981689453 22.97896385192871 181.24066162109375
v 145.06483459472656 22.97896385192871 185.54667663574219
v 166.71269226074219 22.97896385192871 181.24066162109375
v 185.06483459472656 22.97896385192871 168.97813415527344
v 197.32736206054688 22.97896385192871 150.6259765625
v 218.97520446777344 48.93283081054688 128.97813415527344
v 213.34910583496094 48.93283081054688 100.69387054443359
v 197.32736206054688 48.93283081054688 76.71562194824219
v 173.34910583496094 48.93283081054688 60.69386672973633
v 145.06483459472656 48.93283081054688 55.06777572631836
v 116.78057098388672 48.93283081054688 60.69386672973633
v 92.80232238769531 48.93283081054688 76.71562194824219
v 76.78057098388672 48.93283081054688 100.69387054443359
v 71.15447998046875 48.93283081054688 128.97813415527344
v 76.78057098388672 48.93283081054688 157.26240539550781
v 92.80232238769531 48.93283081054688 181.24066162109375
v 116.78057098388672 48.93283081054688 197.26240539550781
v 145.06483459472656 48.93283081054688 202.88850402832031
v 173.34910583496094 48.93283081054688 197.26240539550781
v 197.32736206054688 48.93283081054688 181.24066162109375
v 213.34910583496094 48.93283081054688 157.26240539550781
v 225.06483459472656 79.54750823974609 128.97813415527344
v 218.97520446777344 79.54750823974609 98.36346435546875
v 201.63337707519531 79.54750823974609 72.40959930419922
v 175.67951965332031 79.54750823974609 55.06777572631836
v 145.06483459472656 79.54750823974609 48.9781379699707
v 114.45016479492188 79.54750823974609 55.06777572631836
v 88.49629974365234 79.54750823974609 72.40959930419922
v 71.15447998046875 79.54750823974609 98.36346435546875
v 65.06484222412109 79.54750823974609 128.97813415527344
v 71.15447998046875 79.54750823974609 159.59281921386719
v 88.49629974365234 79.54750823974609 185.54667663574219
v 114.45016479492188 79.54750823974609 202.88850402832031
v 145.06483459472656 79.54750823974609 208.97813415527344
v 175.67951965332031 79.54750823974609 202.88850402832031
v 201.63337707519531 79.54750823974609 185.54667663574219
v 218.97520446777344 79.54750823974609 159.59281921386719
v 218.97520446777344 110.16217803955078 128.97813415527344
v 213.34910583496094 110.16217803955078 100.69387054443359
v 197.32736206054688 110.16217803955078 76.71562194824219
v 173.34910583496094 110.16217803955078 60.69386672973633
v 145.06483459472656 110.16217803955078 55.06777572631836
v 116.78057098388672 110.16217803955078 60.69386672973633
v 92.80232238769531 110.16217803955078 76.71562194824219
v 76.78057098388672 110.16217803955078 100.69387054443359
v 71.15447998046875 110.16217803955078 128.97813415527344
v 76.78057098388672 110.16217803955078 157.26240539550781
v 92.80232238769531 110.16217803955078 181.24066162109375
v 116.78057098388672 110.16217803955078 197.26240539550781
v 145.06483459472656 110.16217803955078 202.88850402832031
v 173.34910583496094 110.16217803955078 197.26240539550781
v 197.32736206054688 110.16217803955078 181.24066162109375
v 213.34910583496094 110.16217803955078 157.26240539550781
v 201.63337707519531 136.11604309082031 128.97813415527344
v 197.32736206054688 136.11604309082031 107.33029174804688
v 185.06483459472656 136.11604309082031 88.97814178466797
v 166.71269226074219 136.11604309082031 76.71562194824219
v 145.06483459472656 136.11604309082031 72.40959930419922
v 123.41699981689453 136.11604309082031 76.71562194824219
v 105.06484222412109 136.11604309082031 88.97814178466797
v 92.80232238769531 136.11604309082031 107.33029174804688
v 88.49629974365234 136.11604309082031 128.97813415527344
v 92.80232238769531 136.11604309082031 150.6259765625
v 105.06484222412109 136.11604309082031 168.97813415527344
v 123.41699981689453 136.11604309082031 181.24066162109375
v 145.06483459472656 136.11604309082031 185.54667663574219
v 166.71269226074219 136.11604309082031 181.24066162109375
v 185.06483459472656 136.11604309082031 168.97813415527344
v 197.32736206054688 136.11604309082031 150.6259765625
v 175.67951965332031 153.45787048339844 128.97813415527344
v 173.34910583496094 153.45787048339844 117.26241302490234
v 166.71269226074219 153.45787048339844 107.33029174804688
v 156.78056335449219 153.45787048339844 100.69387054443359
v 145.06483459472656 153.45787048339844 98.36346435546875
v 133.34910583496094 153.45787048339844 100.69387054443359
v 123.41699981689453 153.45787048339844 107.33029174804688
v 116.78057098388672 153.45787048339844 117.26241302490234
v 114.45016479492188 153.45787048339844 128.97813415527344
v 116.78057098388672 153.45787048339844 140.69386291503906
v 123.41699981689453 153.45787048339844 150.6259765625
v 133.34910583496094 153.45787048339844 157.26240539550781
v 145.06483459472656 153.45787048339844 159.59281921386719
v 156.78056335449219 153.45787048339844 157.26240539550781
v 166.71269226074219 153.45787048339844 150.6259765625
v 173.34910583496094 153.45787048339844 140.69386291503906
# 114 vertices

vn 0.38219478726387 -0.92408180236816 -0.00000000857528
vn 0.70658451318741 -0.70762866735458 -0.00000001534232
vn 0.65279901027679 -0.70762866735458 -0.27039819955826
vn 0.35310199856758 -0.92408174276352 -0.14625963568687
vn 0.49963068962097 -0.70762866735458 -0.49963068962097
vn 0.27025255560875 -0.92408174276352 -0.27025252580643
vn 0.27039813995361 -0.70762872695923 -0.65279895067215
vn 0.14625956118107 -0.92408174276352 -0.3531020283699
vn -0.00000004219137 -0.70762866735458 -0.70658451318741
vn -0.00000001715056 -0.92408174276352 -0.38219484686852
vn -0.27039822936058 -0.70762866735458 -0.65279901027679
vn -0.14625968039036 -0.92408174276352 -0.35310199856758
vn -0.49963063001633 -0.70762866735458 -0.49963071942329
vn -0.27025255560875 -0.92408174276352 -0.27025258541107
vn -0.65279895067215 -0.70762866735458 -0.27039822936058
vn -0.35310196876526 -0.92408174276352 -0.14625968039036
vn -0.70658451318741 -0.70762860774994 -0.00000001150674
vn -0.38219484686852 -0.92408174276352 -0.00000001524494
vn -0.65279895067215 -0.70762866735458 0.27039813995361
vn -0.35310199856758 -0.92408174276352 0.14625969529152
vn -0.49963074922562 -0.70762866735458 0.49963063001633
vn -0.27025261521339 -0.92408174276352 0.27025252580643
vn -0.27039828896523 -0.70762866735458 0.65279895067215
vn -0.14625979959965 -0.92408174276352 0.35310193896294
vn -0.00000004219137 -0.70762866735458 0.70658451318741
vn -0.0000000209618 -0.92408180236816 0.38219478726387
vn 0.27039819955826 -0.70762866735458 0.65279895067215
vn 0.1462596654892 -0.92408174276352 0.35310193896294
vn 0.49963074922562 -0.70762866735458 0.49963063001633
vn 0.27025255560875 -0.92408180236816 0.27025246620178
vn 0.65279901027679 -0.70762866735458 0.27039816975594
vn 0.35310199856758 -0.92408174276352 0.14625963568687
vn 0.9236820936203 -0.38315972685814 -0.00000002315909
vn 0.85337102413177 -0.38315966725349 -0.35347786545753
vn 0.65314191579819 -0.38315966725349 -0.65314191579819
vn 0.35347786545753 -0.38315969705582 -0.85337096452713
vn -0.00000004245834 -0.38315975666046 -0.9236820936203
vn -0.35347789525986 -0.38315972685814 -0.85337096452713
vn -0.65314191579819 -0.38315966725349 -0.65314191579819
vn -0.85337102413177 -0.38315969705582 -0.35347786545753
vn -0.9236820936203 -0.38315969705582 -0.0000000154394
vn -0.85337102413177 -0.38315972685814 0.35347780585289
vn -0.65314185619354 -0.38315969705582 0.65314185619354
vn -0.35347786545753 -0.38315966725349 0.85337096452713
vn -0.00000003473864 -0.38315966725349 0.92368215322494
vn 0.35347780585289 -0.38315963745117 0.85337102413177
vn 0.65314191579819 -0.38315966725349 0.65314191579819
vn 0.85337096452713 -0.38315972685814 0.35347780585289
vn 1 0.00000003095904 -0.00000003095904
vn 0.9238795042038 0.00000003095904 -0.38268342614174
vn 0.70710682868958 0.00000002321928 -0.70710670948029
vn 0.38268345594406 0.0000000193494 -0.9238795042038
vn -0.00000003095904 0.00000002708916 -1
vn -0.38268348574638 0.00000003095904 -0.9238795042038
vn -0.70710688829422 0.00000003095904 -0.70710670948029
vn -0.92387956380844 0.00000003482891 -0.38268339633942
vn -1 0.00000003095904 -0.00000003095904
vn -0.92387956380844 0.00000002708916 0.38268342614174
vn -0.70710676908493 0.0000000193494 0.70710682868958
vn -0.38268342614174 0.00000002708916 0.92387956380844
vn -0.0000000386988 0.00000002708916 1
vn 0.38268336653709 0.00000002708916 0.92387956380844
vn 0.70710682868958 0.00000002708916 0.70710676908493
vn 0.92387956380844 0.0000000193494 0.38268339633942
vn 0.9236820936203 0.38315972685814 -0.00000003087879
vn 0.85337096452713 0.38315969705582 -0.35347786545753
vn 0.65314191579819 0.38315969705582 -0.65314185619354
vn 0.35347786545753 0.38315975666046 -0.85337096452713
vn -0.00000004245834 0.38315978646278 -0.9236820936203
vn -0.35347786545753 0.38315978646278 -0.85337096452713
vn -0.65314185619354 0.38315972685814 -0.65314185619354
vn -0.85337096452713 0.38315969705582 -0.35347786545753
vn -0.9236820936203 0.38315972685814 -0.00000003473864
vn -0.85337096452713 0.38315975666046 0.35347777605057
vn -0.65314191579819 0.38315975666046 0.65314185619354
vn -0.35347783565521 0.38315972685814 0.85337102413177
vn -0.00000005403788 0.38315969705582 0.9236820936203
vn 0.35347783565521 0.38315972685814 0.85337102413177
vn 0.65314185619354 0.38315969705582 0.65314185619354
vn 0.85337102413177 0.38315972685814 0.35347780585289
vn 0.70658457279205 0.70762860774994 -0.00000002301348
vn 0.65279906988144 0.70762860774994 -0.27039819955826
vn 0.49963077902794 0.70762860774994 -0.49963071942329
vn 0.27039816975594 0.70762860774994 -0.65279901027679
vn -0.00000003452022 0.70762860774994 -0.70658451318741
vn -0.27039822936058 0.70762866735458 -0.65279901027679
vn -0.49963068962097 0.70762860774994 -0.49963074922562
vn -0.65279901027679 0.70762860774994 -0.2703982591629
vn -0.70658451318741 0.70762860774994 -0.00000002301348
vn -0.65279901027679 0.70762860774994 0.27039816975594
vn -0.49963074922562 0.70762866735458 0.49963065981865
vn -0.2703982591629 0.70762860774994 0.65279895067215
vn -0.00000004027358 0.70762854814529 0.70658457279205
vn 0.27039822936058 0.70762860774994 0.65279906988144
vn 0.49963080883026 0.70762860774994 0.49963065981865
vn 0.65279901027679 0.70762860774994 0.27039813995361
vn 0.38219481706619 0.92408174276352 -0.00000001715057
vn 0.35310199856758 0.92408174276352 -0.14625960588455
vn 0.2702524960041 0.92408180236816 -0.2702524960041
vn 0.14625957608223 0.92408174276352 -0.3531020283699
vn -0.00000001715056 0.92408174276352 -0.38219481706619
vn -0.1462596654892 0.92408174276352 -0.35310196876526
vn -0.27025255560875 0.92408174276352 -0.27025255560875
vn -0.35310193896294 0.92408174276352 -0.1462596654892
vn -0.38219481706619 0.92408174276352 -0.00000001524494
vn -0.35310193896294 0.92408174276352 0.1462596654892
vn -0.27025258541107 0.92408174276352 0.2702524960041
vn -0.14625975489616 0.92408180236816 0.35310187935829
vn -0.00000000857528 0.92408180236816 0.38219478726387
vn 0.1462596654892 0.92408180236816 0.35310193896294
vn 0.27025255560875 0.92408180236816 0.27025243639946
vn 0.35310199856758 0.92408174276352 0.14625962078571
vn -0.00000003135935 -1 -0.00000001425425
vn 0 0 0
vn -0.00000003706104 1 -0.00000002066866
vn nan nan nan
# 116 normals

vt 0 0.125 0
vt 0 0.25 0
vt 0.0625 0.25 0
vt 0.0625 0.125 0
vt 0.125 0.25 0
vt 0.125 0.125 0
vt 0.1875 0.25 0
vt 0.1875 0.125 0
vt 0.25 0.25 0
vt 0.25 0.125 0
vt 0.3125 0.25 0
vt 0.3125 0.125 0
vt 0.375 0.25 0
vt 0.375 0.125 0
vt 0.4375 0.25 0
vt 0.4375 0.125 0
vt 0.5 0.25 0
vt 0.5 0.125 0
vt 0.5625 0.25 0
vt 0.5625 0.125 0
vt 0.625 0.25 0
vt 0.625 0.125 0
vt 0.6875 0.25 0
vt 0.6875 0.125 0
vt 0.75 0.25 0
vt 0.75 0.125 0
vt 0.8125 0.25 0
vt 0.8125 0.125 0
vt 0.875 0.25 0
vt 0.875 0.125 0
vt 0.9375 0.25 0
vt 0.9375 0.125 0
vt 1 0.25 0
vt 1 0.125 0
vt 0 0.375 0
vt 0.0625 0.375 0
vt 0.125 0.375 0
vt 0.1875 0.375 0
vt 0.25 0.375 0
vt 0.3125 0.375 0
vt 0.375 0.375 0
vt 0.4375 0.375 0
vt 0.5 0.375 0
vt 0.5625 0.375 0
vt 0.625 0.375 0
vt 0.6875 0.375 0
vt 0.75 0.375 0
vt 0.8125 0.375 0
vt 0.875 0.375 0
vt 0.9375 0.375 0
vt 1 0.375 0
vt 0 0.5 0
vt 0.0625 0.5 0
vt 0.125 0.5 0
vt 0.1875 0.5 0
vt 0.25 0.5 0
vt 0.3125 0.5 0
vt 0.375 0.5 0
vt 0.4375 0.5 0
vt 0.5 0.5 0
vt 0.5625 0.5 0
vt 0.625 0.5 0
vt 0.6875 0.5 0
vt 0.75 0.5 0
vt 0.8125 0.5 0
vt 0.875 0.5 0
vt 0.9375 0.5 0
vt 1 0.5 0
vt 0 0.625 0
vt 0.0625 0.625 0
vt 0.125 0.625 0
vt 0.1875 0.625 0
vt 0.25 0.625 0
vt 0.3125 0.625 0
vt 0.375 0.625 0
vt 0.4375 0.625 0
vt 0.5 0.625 0
vt 0.5625 0.625 0
vt 0.625 0.625 0
vt 0.6875 0.625 0
vt 0.75 0.625 0
vt 0.8125 0.625 0
vt 0.875 0.625 0
vt 0.9375 0.625 0
vt 1 0.625 0
vt 0 0.75 0
vt 0.0625 0.75 0
vt 0.125 0.75 0
vt 0.1875 0.75 0
vt 0.25 0.75 0
vt 0.3125 0.75 0
vt 0.375 0.75 0
vt 0.4375 0.75 0
vt 0.5 0.75 0
vt 0.5625 0.75 0
vt 0.625 0.75 0
vt 0.6875 0.75 0
vt 0.75 0.75 0
vt 0.8125 0.75 0
vt 0.875 0.75 0
vt 0.9375 0.75 0
vt 1 0.75 0
vt 0 0.875 0
vt 0.0625 0.875 0
vt 0.125 0.875 0
vt 0.1875 0.875 0
vt 0.25 0.875 0
vt 0.3125 0.875 0
vt 0.375 0.875 0
vt 0.4375 0.875 0
vt 0.5 0.875 0
vt 0.5625 0.875 0
vt 0.625 0.875 0
vt 0.6875 0.875 0
vt 0.75 0.875 0
vt 0.8125 0.875 0
vt 0.875 0.875 0
vt 0.9375 0.875 0
vt 1 0.875 0
vt 0 0 0
vt 0 1 0
vt 0.0625 0 0
vt 0.0625 1 0
vt 0.125 0 0
vt 0.125 1 0
vt 0.1875 0 0
vt 0.1875 1 0
vt 0.25 0 0
vt 0.25 1 0
vt 0.3125 0 0
vt 0.3125 1 0
vt 0.375 0 0
vt 0.375 1 0
vt 0.4375 0 0
vt 0.4375 1 0
vt 0.5 0 0
vt 0.5 1 0
vt 0.5625 0 0
vt 0.5625 1 0
vt 0.625 0 0
vt 0.625 1 0
vt 0.6875 0 0
vt 0.6875 1 0
vt 0.75 0 0
vt 0.75 1 0
vt 0.8125 0 0
vt 0.8125 1 0
vt 0.875 0 0
vt 0.875 1 0
vt 0.9375 0 0
vt 0.9375 1 0
# 151 texture coordinates

o Sphere
usemtl cbox:glass
f 4/4/4 20/3/3 19/2/2 3/1/1
f 5/6/6 21/5/5 20/3/3 4/4/4
f 6/8/8 22/7/7 21/5/5 5/6/6
f 7/10/10 23/9/9 22/7/7 6/8/8
f 8/12/12 24/11/11 23/9/9 7/10/10
f 9/14/14 25/13/13 24/11/11 8/12/12
f 10/16/16 26/15/15 25/13/13 9/14/14
f 11/18/18 27/17/17 26/15/15 10/16/16
f 12/20/20 28/19/19 27/17/17 11/18/18
f 13/22/22 29/21/21 28/19/19 12/20/20
f 14/24/24 30/23/23 29/21/21 13/22/22
f 15/26/26 31/25/25 30/23/23 14/24/24
f 16/28/28 32/27/27 31/25/25 15/26/26
f 17/30/30 33/29/29 32/27/27 16/28/28
f 18/32/32 34/31/31 33/29/29 17/30/30
f 3/34/1 19/33/2 34/31/31 18/32/32
f 20/3/3 36/36/34 35/35/33 19/2/2
f 21/5/5 37/37/35 36/36/34 20/3/3
f 22/7/7 38/38/36 37/37/35 21/5/5
f 23/9/9 39/39/37 38/38/36 22/7/7
f 24/11/11 40/40/38 39/39/37 23/9/9
f 25/13/13 41/41/39 40/40/38 24/11/11
f 26/15/15 42/42/40 41/41/39 25/13/13
f 27/17/17 43/43/41 42/42/40 26/15/15
f 28/19/19 44/44/42 43/43/41 27/17/17
f 29/21/21 45/45/43 44/44/42 28/19/19
f 30/23/23 46/46/44 45/45/43 29/21/21
f 31/25/25 47/47/45 46/46/44 30/23/23
f 32/27/27 48/48/46 47/47/45 31/25/25
f 33/29/29 49/49/47 48/48/46 32/27/27
f 34/31/31 50/50/48 49/49/47 33/29/29
f 19/33/2 35/51/33 50/50/48 34/31/31
f 36/36/34 52/53/50 51/52/49 35/35/33
f 37/37/35 53/54/51 52/53/50 36/36/34
f 38/38/36 54/55/52 53/54/51 37/37/35
f 39/39/37 55/56/53 54/55/52 38/38/36
f 40/40/38 56/57/54 55/56/53 39/39/37
f 41/41/39 57/58/55 56/57/54 40/40/38
f 42/42/40 58/59/56 57/58/55 41/41/39
f 43/43/41 59/60/57 58/59/56 42/42/40
f 44/44/42 60/61/58 59/60/57 43/43/41
f 45/45/43 61/62/59 60/61/58 44/44/42
f 46/46/44 62/63/60 61/62/59 45/45/43
f 47/47/45 63/64/61 62/63/60 46/46/44
f 48/48/46 64/65/62 63/64/61 47/47/45
f 49/49/47 65/66/63 64/65/62 48/48/46
f 50/50/48 66/67/64 65/66/63 49/49/47
f 35/51/33 51/68/49 66/67/64 50/50/48
f 52/53/50 68/70/66 67/69/65 51/52/49
f 53/54/51 69/71/67 68/70/66 52/53/50
f 54/55/52 70/72/68 69/71/67 53/54/51
f 55/56/53 71/73/69 70/72/68 54/55/52
f 56/57/54 72/74/70 71/73/69 55/56/53
f 57/58/55 73/75/71 72/74/70 56/57/54
f 58/59/56 74/76/72 73/75/71 57/58/55
f 59/60/57 75/77/73 74/76/72 58/59/56
f 60/61/58 76/78/74 75/77/73 59/60/57
f 61/62/59 77/79/75 76/78/74 60/61/58
f 62/63/60 78/80/76 77/79/75 61/62/59
f 63/64/61 79/81/77 78/80/76 62/63/60
f 64/65/62 80/82/78 79/81/77 63/64/61
f 65/66/63 81/83/79 80/82/78 64/65/62
f 66/67/64 82/84/80 81/83/79 65/66/63
f 51/68/49 67/85/65 82/84/80 66/67/64
f 68/70/66 84/87/82 83/86/81 67/69/65
f 69/71/67 85/88/83 84/87/82 68/70/66
f 70/72/68 86/89/84 85/88/83 69/71/67
f 71/73/69 87/90/85 86/89/84 70/72/68
f 72/74/70 88/91/86 87/90/85 71/73/69
f 73/75/71 89/92/87 88/91/86 72/74/70
f 74/76/72 90/93/88 89/92/87 73/75/71
f 75/77/73 91/94/89 90/93/88 74/76/72
f 76/78/74 92/95/90 91/94/89 75/77/73
f 77/79/75 93/96/91 92/95/90 76/78/74
f 78/80/76 94/97/92 93/96/91 77/79/75
f 79/81/77 95/98/93 94/97/92 78/80/76
f 80/82/78 96/99/94 95/98/93 79/81/77
f 81/83/79 97/100/95 96/99/94 80/82/78
f 82/84/80 98/101/96 97/100/95 81/83/79
f 67/85/65 83/102/81 98/101/96 82/84/80
f 84/87/82 100/104/98 99/103/97 83/86/81
f 85/88/83 101/105/99 100/104/98 84/87/82
f 86/89/84 102/106/100 101/105/99 85/88/83
f 87/90/85 103/107/101 102/106/100 86/89/84
f 88/91/86 104/108/102 103/107/101 87/90/85
f 89/92/87 105/109/103 104/108/102 88/91/86
f 90/93/88 106/110/104 105/109/103 89/92/87
f 91/94/89 107/111/105 106/110/104 90/93/88
f 92/95/90 108/112/106 107/111/105 91/94/89
f 93/96/91 109/113/107 108/112/106 92/95/90
f 94/97/92 110/114/108 109/113/107 93/96/91
f 95/98/93 111/115/109 110/114/108 94/97/92
f 96/99/94 112/116/110 111/115/109 95/98/93
f 97/100/95 113/117/111 112/116/110 96/99/94
f 98/101/96 114/118/112 113/117/111 97/100/95
f 83/102/81 99/119/97 114/118/112 98/101/96
f 4/4/4 3/1/1 1/120/113
f 2/121/115 99/103/97 100/104/98
f 5/6/6 4/4/4 1/122/113
f 2/123/115 100/104/98 101/105/99
f 6/8/8 5/6/6 1/124/113
f 2/125/115 101/105/99 102/106/100
f 7/10/10 6/8/8 1/126/113
f 2/127/115 102/106/100 103/107/101
f 8/12/12 7/10/10 1/128/113
f 2/129/115 103/107/101 104/108/102
f 9/14/14 8/12/12 1/130/113
f 2/131/115 104/108/102 105/109/103
f 10/16/16 9/14/14 1/132/113
f 2/133/115 105/109/103 106/110/104
f 11/18/18 10/16/16 1/134/113
f 2/135/115 106/110/104 107/111/105
f 12/20/20 11/18/18 1/136/113
f 2/137/115 107/111/105 108/112/106
f 13/22/22 12/20/20 1/138/113
f 2/139/115 108/112/106 109/113/107
f 14/24/24 13/22/22 1/140/113
f 2/141/115 109/113/107 110/114/108
f 15/26/26 14/24/24 1/142/113
f 2/143/115 110/114/108 111/115/109
f 16/28/28 15/26/26 1/144/113
f 2/145/115 111/115/109 112/116/110
f 17/30/30 16/28/28 1/146/113
f 2/147/115 112/116/110 113/117/111
f 18/32/32 17/30/30 1/148/113
f 2/149/115 113/117/111 114/118/112
f 3/34/1 18/32/32 1/150/113
f 2/151/115 114/118/112 99/119/97

v 253.04025268554688 1.16156125068665 413.02597045898438
v 253.04025268554688 358.906982421875 413.02597045898438
v 381.56143188476562 1.16156125068665 457.42840576171875
v 381.56143188476562 358.906982421875 457.42840576171875
v 446.8709716796875 1.16156125068665 268.39224243164062
v 446.8709716796875 358.906982421875 268.39224243164062
v 318.34979248046875 1.16156125068665 223.98983764648438
v 318.34979248046875 358.906982421875 223.98983764648438
# 8 vertices

vn -0.32654792070389 0 0.94518065452576
vn 0.9451807141304 0 0.32654768228531
vn 0.32654768228531 0 -0.9451807141304
vn -0.9451807141304 0 -0.32654771208763
vn 0 1 0
vn 0 -1 0
# 6 normals

vt 1 1 0
vt 1 0 0
# 2 texture coordinates

o Cube
usemtl cbox:white
f 117/153/117 118/152/117 116/121/117 115/120/117
f 119/153/118 120/152/118 118/121/118 117/120/118
f 121/153/119 122/152/119 120/121/119 119/120/119
f 115/153/120 116/152/120 122/121/120 121/120/120
f 118/153/121 120/152/121 122/121/121 116/120/121
f 119/153/122 117/152/122 115/121/122 121/120/122

v 549.5999755859375 0 559.20001220703125
v 0 0 559.20001220703125
v 0 548.79998779296875 559.20001220703125
v 556 548.79998779296875 559.20001220703125
# 4 vertices

vn 0 0 -1
# 1 normal

o cbox:cbox_back_mesh
usemtl cbox:white
f 123//123 124//123 125//123 126//123

v 556 548.79998779296875 0
v 0 548.79998779296875 0
v 343 548.79998779296875 227
v 343 548.79998779296875 332
v 213 548.79998779296875 332
v 213 548.79998779296875 227
# 6 vertices

# 0 normal

o cbox:cbox_ceiling_mesh
usemtl cbox:white
f 127//122 126//122 125//122 128//122
f 132//121 131//121 130//121 129//121

v 552.79998779296875 0 0
v 0 0 0
# 2 vertices

# 0 normal

o cbox:cbox_floor_mesh
usemtl cbox:white
f 133//121 134//121 124//121 123//121

# 0 vertex

vn 1 0 0
# 1 normal

o cbox:cbox_greenwall_mesh
usemtl cbox:blue
f 124//124 134//124 128//124 125//124

v 343 548.70001220703125 227
v 343 548.70001220703125 332
v 213 548.70001220703125 332
v 213 548.70001220703125 227
# 4 vertices

# 0 normal

o cbox:cbox_luminaire_mesh
usemtl cbox:light
f 135//122 136//122 137//122 138//122

# 0 vertex

vn -0.99995791912079 0.00871892925352 -0.00284380814992
# 1 normal

o cbox:cbox_redwall_mesh
usemtl cbox:red
f 133//125 123//125 126//125 127//125

